<?xml version="1.0" encoding="utf-8"?>
<!-- Generator: Adobe Illustrator 24.2.3, SVG Export Plug-In . SVG Version: 6.00 Build 0)  -->
<!DOCTYPE svg PUBLIC "-//W3C//DTD SVG 1.1//EN" "http://www.w3.org/Graphics/SVG/1.1/DTD/svg11.dtd" [
	<!ENTITY ns_extend "http://ns.adobe.com/Extensibility/1.0/">
	<!ENTITY ns_ai "http://ns.adobe.com/AdobeIllustrator/10.0/">
	<!ENTITY ns_graphs "http://ns.adobe.com/Graphs/1.0/">
	<!ENTITY ns_vars "http://ns.adobe.com/Variables/1.0/">
	<!ENTITY ns_imrep "http://ns.adobe.com/ImageReplacement/1.0/">
	<!ENTITY ns_sfw "http://ns.adobe.com/SaveForWeb/1.0/">
	<!ENTITY ns_custom "http://ns.adobe.com/GenericCustomNamespace/1.0/">
	<!ENTITY ns_adobe_xpath "http://ns.adobe.com/XPath/1.0/">
]>
<svg version="1.1" id="Layer_1" xmlns:x="&ns_extend;" xmlns:i="&ns_ai;" xmlns:graph="&ns_graphs;"
	 xmlns="http://www.w3.org/2000/svg" xmlns:xlink="http://www.w3.org/1999/xlink" x="0px" y="0px" viewBox="0 0 126.2 40"
	 style="enable-background:new 0 0 126.2 40;" xml:space="preserve">
<style type="text/css">
	.st0{fill-rule:evenodd;clip-rule:evenodd;fill:#2396F5;}
	.st1{fill:#1D1D1B;}
</style>
<metadata>
	<sfw  xmlns="&ns_sfw;">
		<slices></slices>
		<sliceSourceBounds  bottomLeftOrigin="true" height="35.8" width="124.5" x="0.8" y="1.9"></sliceSourceBounds>
	</sfw>
</metadata>
<g>
	<path class="st0" d="M16.4,19.1c0,0,1.4,4.7,5.9,7.9h19.8c0,0-0.6-3.6,0.1-7.9H16.4L16.4,19.1z M32.9,8c1-2.5,6.1-7.9,13.4-4.8
		l11.3,0l-8.5,1.9c0,0-4.5,4.5-6.2,10.9H6.7c0,0-4.1-2.7-5.9-7.9C0.8,8,32.9,8,32.9,8z M43.8,4.8c-0.5,0-0.8,0.4-0.8,0.8
		s0.4,0.8,0.8,0.8c0.5,0,0.8-0.4,0.8-0.8S44.2,4.8,43.8,4.8L43.8,4.8z M32,30.2l10.7,0c1,4,2.7,6.8,3.4,7.9C44.6,38.1,37,38,32,30.2
		L32,30.2z"/>
</g>
<g>
	<path class="st1" d="M50.6,15.6h10.3c0.2,0,0.4,0.1,0.6,0.3c0.2,0.2,0.2,0.4,0.2,0.6c0,0.2-0.1,0.4-0.2,0.6
		c-0.2,0.2-0.4,0.3-0.6,0.3h-9.4v6.1h6.9c0.2,0,0.4,0.1,0.6,0.3c0.2,0.2,0.3,0.4,0.3,0.6c0,0.2-0.1,0.4-0.3,0.6
		c-0.2,0.2-0.4,0.3-0.6,0.3h-6.9V32c0,0.2-0.1,0.4-0.2,0.6c-0.2,0.2-0.4,0.3-0.6,0.3c-0.2,0-0.4-0.1-0.6-0.3
		c-0.2-0.2-0.3-0.4-0.3-0.6V16.4c0-0.2,0.1-0.4,0.3-0.6C50.1,15.6,50.3,15.6,50.6,15.6L50.6,15.6z M63.5,16.4c0-0.2,0.1-0.4,0.2-0.6
		c0.2-0.2,0.4-0.3,0.6-0.3c0.2,0,0.4,0.1,0.6,0.3c0.2,0.2,0.3,0.4,0.3,0.6v14.7H66c0.2,0,0.4,0.1,0.6,0.3c0.2,0.2,0.3,0.4,0.3,0.6
		s-0.1,0.4-0.3,0.6c-0.2,0.2-0.4,0.3-0.6,0.3h-1.7c-0.2,0-0.4-0.1-0.6-0.3c-0.2-0.2-0.2-0.4-0.2-0.6L63.5,16.4L63.5,16.4z
		 M77.9,29.9c0.2,0,0.4,0.1,0.6,0.3c0.2,0.2,0.3,0.4,0.3,0.6c0,0.2-0.1,0.4-0.2,0.6c-1.1,1-2.4,1.5-3.9,1.5c-1.7,0-3.1-0.6-4.3-1.8
		c-1.2-1.2-1.8-2.6-1.8-4.3s0.6-3.1,1.8-4.3c1.2-1.2,2.6-1.8,4.3-1.8c1.7,0,3.1,0.6,4.2,1.8c1.2,1.2,1.8,2.6,1.8,4.3
		c0,0.2-0.1,0.4-0.2,0.6c-0.2,0.2-0.4,0.3-0.6,0.3h-9.4c0.2,0.8,0.6,1.6,1.2,2.2c0.8,0.8,1.8,1.3,3,1.3c1.1,0,2-0.3,2.8-1
		C77.5,30,77.7,29.9,77.9,29.9L77.9,29.9z M78.8,25.9c-0.2-0.8-0.6-1.6-1.2-2.2c-0.8-0.8-1.8-1.3-3-1.3c-1.2,0-2.2,0.4-3,1.3
		c-0.6,0.6-1,1.4-1.2,2.2L78.8,25.9L78.8,25.9z M91.7,29.9c0.2,0,0.4,0.1,0.6,0.3c0.2,0.2,0.3,0.4,0.3,0.6c0,0.2-0.1,0.5-0.3,0.6
		c-1.1,1-2.4,1.5-3.9,1.5c-1.7,0-3.1-0.6-4.2-1.8c-1.2-1.2-1.8-2.6-1.8-4.3c0-1.7,0.6-3.1,1.8-4.3c1.2-1.2,2.6-1.8,4.2-1.8
		c1.5,0,2.8,0.5,3.9,1.5c0.2,0.2,0.3,0.4,0.3,0.7c0,0.2-0.1,0.4-0.3,0.6c-0.2,0.2-0.4,0.3-0.6,0.3c-0.2,0-0.4-0.1-0.6-0.2
		c-0.8-0.7-1.7-1.1-2.8-1.1c-1.2,0-2.2,0.4-3,1.3c-0.8,0.8-1.3,1.9-1.3,3.1c0,1.2,0.4,2.2,1.3,3.1c0.8,0.8,1.8,1.3,3,1.3
		c1.1,0,2-0.4,2.8-1.1C91.3,30,91.5,29.9,91.7,29.9L91.7,29.9z M100.4,31.1c0.2,0,0.4,0.1,0.6,0.3c0.2,0.2,0.2,0.4,0.2,0.6
		c0,0.2-0.1,0.4-0.2,0.6c-0.2,0.2-0.4,0.3-0.6,0.3c-2.9,0-4.3-1.4-4.3-4.3v-6.1h-0.9c-0.2,0-0.4-0.1-0.6-0.3
		c-0.2-0.2-0.3-0.4-0.3-0.6c0-0.2,0.1-0.4,0.3-0.6c0.2-0.2,0.4-0.3,0.6-0.3h0.9v-4.3c0-0.2,0.1-0.4,0.2-0.6c0.2-0.2,0.4-0.3,0.6-0.3
		c0.2,0,0.4,0.1,0.6,0.3c0.2,0.2,0.3,0.4,0.3,0.6v4.3h1.7c0.2,0,0.4,0.1,0.6,0.3c0.2,0.2,0.2,0.4,0.2,0.6c0,0.2-0.1,0.4-0.2,0.6
		c-0.2,0.2-0.4,0.3-0.6,0.3h-1.7v6.1C97.8,30.3,98.7,31.1,100.4,31.1L100.4,31.1z M103,21.6c0-0.2,0.1-0.4,0.3-0.6
		c0.2-0.2,0.4-0.3,0.6-0.3c0.2,0,0.4,0.1,0.6,0.3c0.2,0.2,0.3,0.4,0.3,0.6v0.9c1.2-1.2,2.6-1.8,4.3-1.8c0.8,0,1.6,0.1,2.3,0.4
		c0.1,0.1,0.2,0.1,0.4,0.2c0.2,0.2,0.2,0.4,0.2,0.6c0,0.2-0.1,0.4-0.3,0.6c-0.2,0.2-0.4,0.3-0.6,0.3c-0.1,0-0.3,0-0.4-0.1
		c-0.5-0.2-1.1-0.3-1.7-0.3c-1.2,0-2.2,0.4-3,1.3c-0.8,0.8-1.3,1.9-1.3,3.1V32c0,0.2-0.1,0.4-0.3,0.6c-0.2,0.2-0.4,0.3-0.6,0.3
		c-0.2,0-0.4-0.1-0.6-0.3c-0.2-0.2-0.3-0.4-0.3-0.6L103,21.6L103,21.6z M123.6,31c-1.2,1.2-2.6,1.8-4.3,1.8c-1.7,0-3.1-0.6-4.3-1.8
		c-1.2-1.2-1.8-2.6-1.8-4.3c0-1.7,0.6-3.1,1.8-4.3c1.2-1.2,2.6-1.8,4.3-1.8c1.7,0,3.1,0.6,4.2,1.8c1.2,1.2,1.8,2.6,1.8,4.3V32
		c0,0.2-0.1,0.4-0.2,0.6c-0.2,0.2-0.4,0.3-0.6,0.3c-0.2,0-0.4-0.1-0.6-0.3c-0.2-0.2-0.3-0.4-0.3-0.6L123.6,31L123.6,31z M119.3,22.5
		c-1.2,0-2.2,0.4-3,1.3c-0.8,0.8-1.3,1.9-1.3,3.1c0,1.2,0.4,2.2,1.3,3.1s1.8,1.3,3,1.3c1.2,0,2.2-0.4,3-1.3c0.8-0.8,1.3-1.9,1.3-3.1
		s-0.4-2.2-1.3-3.1S120.5,22.5,119.3,22.5L119.3,22.5z"/>
</g>
</svg>
